<svg width="308" height="74" viewBox="0 0 308 74" fill="none" xmlns="http://www.w3.org/2000/svg">
<path d="M17.873 66.5547L29.2988 1.90625H37.3066L42.4824 7.42383L30.2266 73H21.291L17.873 66.5547ZM17.4824 1.90625L27.1016 67.043L23.293 73H12.9414L0.929688 1.90625H17.4824ZM45.9004 66.7012L55.4707 1.90625H71.9258L59.9141 73H49.6113L45.9004 66.7012ZM43.4102 1.90625L55.2266 66.9453L51.5645 73H42.6289L30.0312 7.32617L35.4512 1.90625H43.4102ZM150.275 32.1309V42.873C150.275 47.9837 149.641 52.4759 148.371 56.3496C147.102 60.2233 145.295 63.4785 142.951 66.1152C140.607 68.7194 137.824 70.6888 134.602 72.0234C131.411 73.3255 127.863 73.9766 123.957 73.9766C120.018 73.9766 116.438 73.3255 113.215 72.0234C109.992 70.6888 107.209 68.7194 104.865 66.1152C102.521 63.4785 100.715 60.2233 99.4453 56.3496C98.1758 52.4759 97.541 47.9837 97.541 42.873V32.1309C97.541 27.0202 98.1758 22.5117 99.4453 18.6055C100.715 14.6992 102.505 11.444 104.816 8.83984C107.16 6.23568 109.943 4.26628 113.166 2.93164C116.389 1.59701 119.969 0.929688 123.908 0.929688C127.814 0.929688 131.379 1.59701 134.602 2.93164C137.857 4.26628 140.64 6.23568 142.951 8.83984C145.262 11.444 147.053 14.6992 148.322 18.6055C149.624 22.5117 150.275 27.0202 150.275 32.1309ZM133.332 42.873V32.0332C133.332 28.8431 133.137 26.125 132.746 23.8789C132.355 21.6328 131.77 19.8099 130.988 18.4102C130.207 17.0104 129.23 15.985 128.059 15.334C126.887 14.6829 125.503 14.3574 123.908 14.3574C122.248 14.3574 120.832 14.6829 119.66 15.334C118.488 15.985 117.512 17.0104 116.73 18.4102C115.982 19.8099 115.428 21.6328 115.07 23.8789C114.712 26.125 114.533 28.8431 114.533 32.0332V42.873C114.533 46.0306 114.712 48.7324 115.07 50.9785C115.428 53.1921 115.982 55.015 116.73 56.4473C117.512 57.8796 118.505 58.9375 119.709 59.6211C120.913 60.2721 122.329 60.5977 123.957 60.5977C125.52 60.5977 126.887 60.2721 128.059 59.6211C129.263 58.9375 130.24 57.8796 130.988 56.4473C131.77 55.015 132.355 53.1921 132.746 50.9785C133.137 48.7324 133.332 46.0306 133.332 42.873ZM179.016 1.90625H203.332C208.085 1.90625 212.202 2.72005 215.686 4.34766C219.169 5.97526 221.838 8.38411 223.693 11.5742C225.581 14.7643 226.525 18.7031 226.525 23.3906C226.525 27.4596 226.005 30.8613 224.963 33.5957C223.954 36.3301 222.521 38.5924 220.666 40.3828C218.811 42.1406 216.63 43.5892 214.123 44.7285L208.703 47.9023H189.611L189.514 34.6699H202.941C204.471 34.6699 205.741 34.2793 206.75 33.498C207.759 32.7168 208.508 31.61 208.996 30.1777C209.517 28.7129 209.777 26.9714 209.777 24.9531C209.777 22.9023 209.533 21.1445 209.045 19.6797C208.557 18.2148 207.84 17.0918 206.896 16.3105C205.985 15.5293 204.797 15.1387 203.332 15.1387H195.715V73H179.016V1.90625ZM210.51 73L197.912 41.5547L215.588 41.457L228.43 72.2676V73H210.51ZM272.404 1.90625V73H255.705V1.90625H272.404ZM307.658 1.90625L285.197 37.9414L271.379 55.5684L268.205 39.8457L276.506 24.2207L287.102 1.90625H307.658ZM287.541 73L274.553 40.9688L287.59 31.1543L307.268 73H287.541Z" fill="#303030"/>
<path d="M17.873 66.5547L17.3807 66.4677L17.3507 66.637L17.4313 66.7889L17.873 66.5547ZM29.2988 1.90625V1.40625H28.8794L28.8065 1.81923L29.2988 1.90625ZM37.3066 1.90625L37.6713 1.56417L37.5232 1.40625H37.3066V1.90625ZM42.4824 7.42383L42.9739 7.51569L43.0205 7.26658L42.8471 7.08175L42.4824 7.42383ZM30.2266 73V73.5H30.6418L30.7181 73.0919L30.2266 73ZM21.291 73L20.8493 73.2343L20.9902 73.5H21.291V73ZM17.4824 1.90625L17.9771 1.8332L17.914 1.40625H17.4824V1.90625ZM27.1016 67.043L27.5228 67.3123L27.6235 67.1548L27.5962 66.9699L27.1016 67.043ZM23.293 73V73.5H23.5668L23.7142 73.2693L23.293 73ZM12.9414 73L12.4484 73.0833L12.5188 73.5H12.9414V73ZM0.929688 1.90625V1.40625H0.338123L0.436675 1.98955L0.929688 1.90625ZM45.9004 66.7012L45.4058 66.6281L45.38 66.8028L45.4696 66.955L45.9004 66.7012ZM55.4707 1.90625V1.40625H55.0391L54.9761 1.83319L55.4707 1.90625ZM71.9258 1.90625L72.4188 1.98955L72.5173 1.40625H71.9258V1.90625ZM59.9141 73V73.5H60.3367L60.4071 73.0833L59.9141 73ZM49.6113 73L49.1805 73.2538L49.3256 73.5H49.6113V73ZM43.4102 1.90625L43.9021 1.81687L43.8275 1.40625H43.4102V1.90625ZM55.2266 66.9453L55.6544 67.2041L55.7523 67.0421L55.7185 66.8559L55.2266 66.9453ZM51.5645 73V73.5H51.8464L51.9923 73.2588L51.5645 73ZM42.6289 73L42.1379 73.0942L42.2157 73.5H42.6289V73ZM30.0312 7.32617L29.6777 6.97262L29.4903 7.16005L29.5402 7.42037L30.0312 7.32617ZM35.4512 1.90625V1.40625H35.2441L35.0976 1.5527L35.4512 1.90625ZM18.3654 66.6417L29.7912 1.99327L28.8065 1.81923L17.3807 66.4677L18.3654 66.6417ZM29.2988 2.40625H37.3066V1.40625H29.2988V2.40625ZM36.942 2.24833L42.1178 7.76591L42.8471 7.08175L37.6713 1.56417L36.942 2.24833ZM41.9909 7.33197L29.7351 72.9081L30.7181 73.0919L42.9739 7.51569L41.9909 7.33197ZM30.2266 72.5H21.291V73.5H30.2266V72.5ZM21.7327 72.7657L18.3148 66.3204L17.4313 66.7889L20.8493 73.2343L21.7327 72.7657ZM16.9878 1.9793L26.6069 67.116L27.5962 66.9699L17.9771 1.8332L16.9878 1.9793ZM26.6803 66.7736L22.8717 72.7307L23.7142 73.2693L27.5228 67.3123L26.6803 66.7736ZM23.293 72.5H12.9414V73.5H23.293V72.5ZM13.4344 72.9167L1.4227 1.82295L0.436675 1.98955L12.4484 73.0833L13.4344 72.9167ZM0.929688 2.40625H17.4824V1.40625H0.929688V2.40625ZM46.395 66.7742L55.9653 1.97931L54.9761 1.83319L45.4058 66.6281L46.395 66.7742ZM55.4707 2.40625H71.9258V1.40625H55.4707V2.40625ZM71.4328 1.82295L59.421 72.9167L60.4071 73.0833L72.4188 1.98955L71.4328 1.82295ZM59.9141 72.5H49.6113V73.5H59.9141V72.5ZM50.0421 72.7462L46.3312 66.4474L45.4696 66.955L49.1805 73.2538L50.0421 72.7462ZM42.9182 1.99563L54.7346 67.0347L55.7185 66.8559L43.9021 1.81687L42.9182 1.99563ZM54.7987 66.6865L51.1366 72.7412L51.9923 73.2588L55.6544 67.2041L54.7987 66.6865ZM51.5645 72.5H42.6289V73.5H51.5645V72.5ZM43.12 72.9058L30.5223 7.23198L29.5402 7.42037L42.1379 73.0942L43.12 72.9058ZM30.3848 7.67973L35.8047 2.2598L35.0976 1.5527L29.6777 6.97262L30.3848 7.67973ZM35.4512 2.40625H43.4102V1.40625H35.4512V2.40625ZM148.371 56.3496L147.896 56.1939L148.371 56.3496ZM142.951 66.1152L143.323 66.4497L143.325 66.4474L142.951 66.1152ZM134.602 72.0234L134.791 72.4864L134.793 72.4854L134.602 72.0234ZM113.215 72.0234L113.024 72.4854L113.028 72.487L113.215 72.0234ZM104.865 66.1152L104.492 66.4474L104.494 66.4497L104.865 66.1152ZM104.816 8.83984L104.445 8.50535L104.442 8.50795L104.816 8.83984ZM134.602 2.93164L134.41 3.3936L134.412 3.39427L134.602 2.93164ZM142.951 8.83984L143.325 8.50795L142.951 8.83984ZM148.322 18.6055L147.847 18.76L147.848 18.7636L148.322 18.6055ZM116.73 18.4102L116.294 18.1664L116.29 18.1743L116.73 18.4102ZM115.07 50.9785L114.577 51.0572L114.577 51.0584L115.07 50.9785ZM116.73 56.4473L116.287 56.6789L116.292 56.6867L116.73 56.4473ZM119.709 59.6211L119.462 60.056L119.471 60.0609L119.709 59.6211ZM128.059 59.6211L128.301 60.0582L128.305 60.0559L128.059 59.6211ZM130.988 56.4473L130.549 56.2078L130.545 56.2156L130.988 56.4473ZM132.746 50.9785L133.238 51.0654L133.239 51.0642L132.746 50.9785ZM149.775 32.1309V42.873H150.775V32.1309H149.775ZM149.775 42.873C149.775 47.9436 149.145 52.3813 147.896 56.1939L148.846 56.5053C150.136 52.5705 150.775 48.0238 150.775 42.873H149.775ZM147.896 56.1939C146.644 60.0125 144.869 63.2049 142.577 65.7831L143.325 66.4474C145.721 63.7521 147.559 60.4341 148.846 56.5053L147.896 56.1939ZM142.58 65.7808C140.285 68.3298 137.564 70.2555 134.41 71.5615L134.793 72.4854C138.085 71.1221 140.929 69.109 143.323 66.4497L142.58 65.7808ZM134.413 71.5605C131.29 72.8351 127.807 73.4766 123.957 73.4766V74.4766C127.919 74.4766 131.533 73.816 134.791 72.4864L134.413 71.5605ZM123.957 73.4766C120.074 73.4766 116.558 72.8349 113.402 71.5598L113.028 72.487C116.317 73.8162 119.963 74.4766 123.957 74.4766V73.4766ZM113.406 71.5615C110.253 70.2555 107.531 68.3298 105.237 65.7808L104.494 66.4497C106.887 69.109 109.732 71.1221 113.024 72.4854L113.406 71.5615ZM105.239 65.7831C102.947 63.2049 101.172 60.0125 99.9204 56.1939L98.9702 56.5053C100.258 60.4341 102.096 63.7521 104.492 66.4474L105.239 65.7831ZM99.9204 56.1939C98.671 52.3813 98.041 47.9436 98.041 42.873H97.041C97.041 48.0238 97.6806 52.5705 98.9702 56.5053L99.9204 56.1939ZM98.041 42.873V32.1309H97.041V42.873H98.041ZM98.041 32.1309C98.041 27.0604 98.6709 22.6059 99.9208 18.76L98.9698 18.4509C97.6806 22.4176 97.041 26.98 97.041 32.1309H98.041ZM99.9208 18.76C101.173 14.9076 102.932 11.716 105.19 9.17174L104.442 8.50795C102.078 11.172 100.257 14.4908 98.9698 18.4509L99.9208 18.76ZM105.188 9.17433C107.482 6.6253 110.204 4.69958 113.357 3.39359L112.975 2.46969C109.683 3.83297 106.838 5.84605 104.445 8.50536L105.188 9.17433ZM113.357 3.39359C116.512 2.08712 120.027 1.42969 123.908 1.42969V0.429688C119.912 0.429688 116.265 1.10689 112.975 2.46969L113.357 3.39359ZM123.908 1.42969C127.757 1.42969 131.255 2.08692 134.41 3.39359L134.793 2.46969C131.503 1.10709 127.872 0.429688 123.908 0.429688V1.42969ZM134.412 3.39427C137.597 4.70027 140.317 6.62525 142.577 9.17174L143.325 8.50795C140.963 5.8461 138.116 3.83228 134.791 2.46901L134.412 3.39427ZM142.577 9.17174C144.835 11.716 146.595 14.9076 147.847 18.76L148.798 18.4509C147.511 14.4908 145.689 11.172 143.325 8.50795L142.577 9.17174ZM147.848 18.7636C149.129 22.6083 149.775 27.0615 149.775 32.1309H150.775C150.775 26.9789 150.119 22.4152 148.797 18.4474L147.848 18.7636ZM133.832 42.873V32.0332H132.832V42.873H133.832ZM133.832 32.0332C133.832 28.8248 133.636 26.0763 133.239 23.7932L132.253 23.9646C132.638 26.1737 132.832 28.8614 132.832 32.0332H133.832ZM133.239 23.7932C132.842 21.5132 132.242 19.6313 131.425 18.1665L130.552 18.6538C131.297 19.9885 131.869 21.7525 132.253 23.9646L133.239 23.7932ZM131.425 18.1665C130.607 16.7015 129.569 15.6013 128.301 14.8969L127.816 15.7711C128.892 16.3688 129.807 17.3193 130.552 18.6538L131.425 18.1665ZM128.301 14.8969C127.042 14.1974 125.572 13.8574 123.908 13.8574V14.8574C125.434 14.8574 126.731 15.1685 127.816 15.7711L128.301 14.8969ZM123.908 13.8574C122.183 13.8574 120.679 14.1959 119.417 14.8969L119.903 15.7711C120.985 15.17 122.313 14.8574 123.908 14.8574V13.8574ZM119.417 14.8969C118.149 15.6013 117.112 16.7015 116.294 18.1665L117.167 18.6538C117.912 17.3193 118.827 16.3688 119.903 15.7711L119.417 14.8969ZM116.29 18.1743C115.506 19.6394 114.94 21.5209 114.577 23.8002L115.564 23.9576C115.917 21.7447 116.458 19.9804 117.171 18.646L116.29 18.1743ZM114.577 23.8002C114.213 26.0803 114.033 28.8264 114.033 32.0332H115.033C115.033 28.8598 115.211 26.1697 115.564 23.9576L114.577 23.8002ZM114.033 32.0332V42.873H115.033V32.0332H114.033ZM114.033 42.873C114.033 46.0476 114.213 48.7773 114.577 51.0572L115.564 50.8998C115.211 48.6876 115.033 46.0135 115.033 42.873H114.033ZM114.577 51.0584C114.94 53.3059 115.506 55.1846 116.287 56.6789L117.174 56.2156C116.457 54.8454 115.916 53.0782 115.564 50.8987L114.577 51.0584ZM116.292 56.6867C117.109 58.186 118.163 59.3187 119.462 60.0559L119.956 59.1863C118.846 58.5563 117.914 57.5731 117.169 56.2078L116.292 56.6867ZM119.471 60.0609C120.761 60.7583 122.262 61.0977 123.957 61.0977V60.0977C122.397 60.0977 121.066 59.786 119.947 59.1812L119.471 60.0609ZM123.957 61.0977C125.59 61.0977 127.044 60.7569 128.301 60.0582L127.816 59.184C126.73 59.7874 125.449 60.0977 123.957 60.0977V61.0977ZM128.305 60.0559C129.607 59.3174 130.646 58.1819 131.431 56.6789L130.545 56.2156C129.833 57.5772 128.919 58.5576 127.812 59.1863L128.305 60.0559ZM131.427 56.6867C132.242 55.1926 132.842 53.3137 133.238 51.0654L132.254 50.8916C131.869 53.0704 131.297 54.8374 130.549 56.2078L131.427 56.6867ZM133.239 51.0642C133.636 48.7814 133.832 46.0492 133.832 42.873H132.832C132.832 46.012 132.638 48.6835 132.253 50.8928L133.239 51.0642ZM179.016 1.90625V1.40625H178.516V1.90625H179.016ZM223.693 11.5742L223.261 11.8256L223.263 11.8289L223.693 11.5742ZM224.963 33.5957L224.496 33.4177L224.494 33.4226L224.963 33.5957ZM220.666 40.3828L221.01 40.7458L221.013 40.7426L220.666 40.3828ZM214.123 44.7285L213.916 44.2733L213.893 44.284L213.87 44.297L214.123 44.7285ZM208.703 47.9023V48.4023H208.839L208.956 48.3338L208.703 47.9023ZM189.611 47.9023L189.111 47.906L189.115 48.4023H189.611V47.9023ZM189.514 34.6699V34.1699H189.01L189.014 34.6736L189.514 34.6699ZM206.75 33.498L207.056 33.8934L206.75 33.498ZM208.996 30.1777L208.525 30.0102L208.523 30.0164L208.996 30.1777ZM206.896 16.3105L206.571 16.6902L206.578 16.6957L206.896 16.3105ZM195.715 15.1387V14.6387H195.215V15.1387H195.715ZM195.715 73V73.5H196.215V73H195.715ZM179.016 73H178.516V73.5H179.016V73ZM210.51 73L210.046 73.1859L210.171 73.5H210.51V73ZM197.912 41.5547L197.909 41.0547L197.175 41.0588L197.448 41.7406L197.912 41.5547ZM215.588 41.457L216.049 41.2647L215.92 40.9552L215.585 40.957L215.588 41.457ZM228.43 72.2676H228.93V72.1675L228.891 72.0752L228.43 72.2676ZM228.43 73V73.5H228.93V73H228.43ZM179.016 2.40625H203.332V1.40625H179.016V2.40625ZM203.332 2.40625C208.028 2.40625 212.071 3.21043 215.474 4.80064L215.897 3.89467C212.334 2.22968 208.141 1.40625 203.332 1.40625V2.40625ZM215.474 4.80064C218.869 6.38701 221.459 8.72744 223.261 11.8256L224.126 11.3228C222.217 8.04079 219.469 5.56351 215.897 3.89467L215.474 4.80064ZM223.263 11.8289C225.095 14.924 226.025 18.7693 226.025 23.3906H227.025C227.025 18.6369 226.068 14.6047 224.124 11.3196L223.263 11.8289ZM226.025 23.3906C226.025 27.4208 225.509 30.7577 224.496 33.4177L225.43 33.7737C226.5 30.965 227.025 27.4984 227.025 23.3906H226.025ZM224.494 33.4226C223.507 36.0956 222.113 38.2913 220.319 40.023L221.013 40.7426C222.93 38.8935 224.4 36.5645 225.432 33.7688L224.494 33.4226ZM220.322 40.0198C218.51 41.7367 216.376 43.1552 213.916 44.2733L214.33 45.1837C216.883 44.0232 219.111 42.5446 221.01 40.7458L220.322 40.0198ZM213.87 44.297L208.45 47.4709L208.956 48.3338L214.376 45.16L213.87 44.297ZM208.703 47.4023H189.611V48.4023H208.703V47.4023ZM190.111 47.8987L190.014 34.6662L189.014 34.6736L189.111 47.906L190.111 47.8987ZM189.514 35.1699H202.941V34.1699H189.514V35.1699ZM202.941 35.1699C204.559 35.1699 205.943 34.7552 207.056 33.8934L206.444 33.1027C205.539 33.8034 204.383 34.1699 202.941 34.1699V35.1699ZM207.056 33.8934C208.156 33.0418 208.955 31.8465 209.469 30.3391L208.523 30.0164C208.06 31.3735 207.362 32.3918 206.444 33.1027L207.056 33.8934ZM209.467 30.3452C210.012 28.8133 210.277 27.0123 210.277 24.9531H209.277C209.277 26.9304 209.022 28.6125 208.525 30.0102L209.467 30.3452ZM210.277 24.9531C210.277 22.8651 210.029 21.051 209.519 19.5216L208.571 19.8378C209.037 21.238 209.277 22.9396 209.277 24.9531H210.277ZM209.519 19.5216C209.009 17.9909 208.248 16.78 207.215 15.9253L206.578 16.6957C207.433 17.4036 208.104 18.4388 208.571 19.8378L209.519 19.5216ZM207.222 15.9309C206.201 15.0559 204.889 14.6387 203.332 14.6387V15.6387C204.705 15.6387 205.769 16.0027 206.571 16.6902L207.222 15.9309ZM203.332 14.6387H195.715V15.6387H203.332V14.6387ZM195.215 15.1387V73H196.215V15.1387H195.215ZM195.715 72.5H179.016V73.5H195.715V72.5ZM179.516 73V1.90625H178.516V73H179.516ZM210.974 72.8141L198.376 41.3687L197.448 41.7406L210.046 73.1859L210.974 72.8141ZM197.915 42.0547L215.591 41.957L215.585 40.957L197.909 41.0547L197.915 42.0547ZM215.126 41.6494L227.968 72.4599L228.891 72.0752L216.049 41.2647L215.126 41.6494ZM227.93 72.2676V73H228.93V72.2676H227.93ZM228.43 72.5H210.51V73.5H228.43V72.5ZM272.404 1.90625H272.904V1.40625H272.404V1.90625ZM272.404 73V73.5H272.904V73H272.404ZM255.705 73H255.205V73.5H255.705V73ZM255.705 1.90625V1.40625H255.205V1.90625H255.705ZM307.658 1.90625L308.083 2.17073L308.559 1.40625H307.658V1.90625ZM285.197 37.9414L285.591 38.2499L285.607 38.2287L285.622 38.2059L285.197 37.9414ZM271.379 55.5684L270.889 55.6673L271.103 56.7303L271.772 55.8768L271.379 55.5684ZM268.205 39.8457L267.764 39.6111L267.68 39.7692L267.715 39.9446L268.205 39.8457ZM276.506 24.2207L276.947 24.4553L276.953 24.4453L276.958 24.4352L276.506 24.2207ZM287.102 1.90625V1.40625H286.785L286.65 1.69178L287.102 1.90625ZM287.541 73L287.078 73.1879L287.204 73.5H287.541V73ZM274.553 40.9688L274.252 40.5693L273.945 40.8005L274.089 41.1566L274.553 40.9688ZM287.59 31.1543L288.042 30.9415L287.781 30.3849L287.289 30.7548L287.59 31.1543ZM307.268 73V73.5H308.055L307.72 72.7872L307.268 73ZM271.904 1.90625V73H272.904V1.90625H271.904ZM272.404 72.5H255.705V73.5H272.404V72.5ZM256.205 73V1.90625H255.205V73H256.205ZM255.705 2.40625H272.404V1.40625H255.705V2.40625ZM307.234 1.64177L284.773 37.6769L285.622 38.2059L308.083 2.17073L307.234 1.64177ZM284.804 37.6329L270.985 55.2599L271.772 55.8768L285.591 38.2499L284.804 37.6329ZM271.869 55.4694L268.695 39.7468L267.715 39.9446L270.889 55.6673L271.869 55.4694ZM268.647 40.0803L276.947 24.4553L276.064 23.9861L267.764 39.6111L268.647 40.0803ZM276.958 24.4352L287.553 2.12072L286.65 1.69178L276.054 24.0062L276.958 24.4352ZM287.102 2.40625H307.658V1.40625H287.102V2.40625ZM288.004 72.8121L275.016 40.7809L274.089 41.1566L287.078 73.1879L288.004 72.8121ZM274.853 41.3682L287.891 31.5538L287.289 30.7548L274.252 40.5693L274.853 41.3682ZM287.137 31.3671L306.815 73.2128L307.72 72.7872L288.042 30.9415L287.137 31.3671ZM307.268 72.5H287.541V73.5H307.268V72.5Z" fill="black"/>
</svg>
