<svg width="65" height="66" viewBox="0 0 65 66" fill="none" xmlns="http://www.w3.org/2000/svg">
<circle cx="32.5" cy="33.1951" r="32.5" fill="#0156FF"/>
<g clip-path="url(#clip0_850_2033)">
<path d="M35.82 45.3433L33 48.1633L30.18 45.3433C24.6375 44.0633 20.5 39.0933 20.5 33.1633C20.5 26.2633 26.1 20.6633 33 20.6633C39.9 20.6633 45.5 26.2633 45.5 33.1633C45.5 39.0933 41.3625 44.0633 35.82 45.3433ZM25.5287 37.4333C27.3637 40.1708 30.1187 41.9133 33.2 41.9133C36.28 41.9133 39.0362 40.1721 40.87 37.4333C38.7897 35.4891 36.0474 34.4093 33.2 34.4133C30.3521 34.409 27.6094 35.4888 25.5287 37.4333ZM33 31.9133C33.9946 31.9133 34.9484 31.5182 35.6517 30.815C36.3549 30.1117 36.75 29.1579 36.75 28.1633C36.75 27.1688 36.3549 26.2149 35.6517 25.5117C34.9484 24.8084 33.9946 24.4133 33 24.4133C32.0054 24.4133 31.0516 24.8084 30.3483 25.5117C29.6451 26.2149 29.25 27.1688 29.25 28.1633C29.25 29.1579 29.6451 30.1117 30.3483 30.815C31.0516 31.5182 32.0054 31.9133 33 31.9133Z" fill="white"/>
</g>
<defs>
<clipPath id="clip0_850_2033">
<rect width="30" height="30" fill="white" transform="translate(18 18.1633)"/>
</clipPath>
</defs>
</svg>
