<svg width="65" height="66" viewBox="0 0 65 66" fill="none" xmlns="http://www.w3.org/2000/svg">
<circle cx="32.5" cy="33.1951" r="32.5" fill="#0156FF"/>
<g clip-path="url(#clip0_850_2057)">
<path d="M45.2045 21.6898C45.129 21.502 44.9841 21.3504 44.7998 21.2667C44.6155 21.183 44.406 21.1736 44.215 21.2404C44.0239 21.3072 43.866 21.4451 43.774 21.6255C43.682 21.8058 43.6631 22.0146 43.7212 22.2085C44.9289 25.6795 42.5317 28.2717 40.7039 29.6601L39.9655 28.6019C39.7172 28.247 39.1621 27.9519 38.7305 27.9467L34.5861 27.9649C34.0798 27.9802 33.5871 28.132 33.16 28.4043L20.9478 36.9674C20.6637 37.1673 20.4704 37.4716 20.4102 37.8137C20.3501 38.1558 20.4279 38.5077 20.6267 38.7926L26.1764 46.733C26.5924 47.3245 27.2567 47.253 27.8495 46.8396L40.0617 38.2752C40.4127 38.0269 40.8183 37.4913 40.9613 37.0818L42.2587 32.9933C42.4017 32.5851 42.3146 31.9624 42.0663 31.6075L41.6165 30.9627C44.0709 29.0816 46.6189 25.7575 45.2045 21.6898ZM39.5222 33.8552C39.2972 34.0127 39.0434 34.1243 38.7753 34.1836C38.5071 34.243 38.2299 34.2489 37.9595 34.2011C37.6891 34.1533 37.4307 34.0527 37.1992 33.905C36.9677 33.7573 36.7675 33.5655 36.6102 33.3404C36.2916 32.8849 36.1667 32.3217 36.263 31.7743C36.3593 31.2269 36.6688 30.74 37.1237 30.4206C37.4803 30.1707 37.906 30.0386 38.3414 30.0425C38.7768 30.0465 39.2001 30.1864 39.5521 30.4427C39.1985 30.6559 38.9554 30.7807 38.9099 30.8002C38.7487 30.877 38.6184 31.0063 38.5404 31.1669C38.4623 31.3274 38.4411 31.5098 38.4803 31.6839C38.5194 31.8581 38.6165 32.0139 38.7558 32.1256C38.895 32.2374 39.068 32.2986 39.2466 32.2991C39.3584 32.2991 39.4728 32.2731 39.5807 32.2224C39.8329 32.1028 40.1033 31.9611 40.3854 31.7934C40.4503 32.1835 40.4037 32.5839 40.2509 32.9487C40.0982 33.3135 39.8456 33.6277 39.5222 33.8552Z" fill="white"/>
</g>
<defs>
<clipPath id="clip0_850_2057">
<rect width="26" height="26" fill="white" transform="translate(20 21.1633)"/>
</clipPath>
</defs>
</svg>
