<svg width="65" height="66" viewBox="0 0 65 66" fill="none" xmlns="http://www.w3.org/2000/svg">
<circle cx="32.5" cy="33.1951" r="32.5" fill="#0156FF"/>
<path d="M32.9114 21.0875C26.1061 21.0875 20.5696 26.624 20.5696 33.4292V38.5424C20.5696 39.8062 21.6766 40.8343 23.0379 40.8343H24.2721C24.5994 40.8343 24.9134 40.7043 25.1448 40.4728C25.3763 40.2414 25.5063 39.9274 25.5063 39.6001V33.2527C25.5063 32.9254 25.3763 32.6115 25.1448 32.38C24.9134 32.1486 24.5994 32.0186 24.2721 32.0186H23.1515C23.8377 27.2423 27.9475 23.5558 32.9114 23.5558C37.8752 23.5558 41.985 27.2423 42.6712 32.0186H41.5506C41.2233 32.0186 40.9094 32.1486 40.6779 32.38C40.4464 32.6115 40.3164 32.9254 40.3164 33.2527V40.8343C40.3164 42.1956 39.2094 43.3026 37.8481 43.3026H35.3797V42.0685H30.443V45.771H37.8481C40.5707 45.771 42.7848 43.5569 42.7848 40.8343C44.1461 40.8343 45.2531 39.8062 45.2531 38.5424V33.4292C45.2531 26.624 39.7166 21.0875 32.9114 21.0875Z" fill="white"/>
</svg>
